<?xml version="1.0" encoding="UTF-8"?>
<svg id="Layer_1" xmlns="http://www.w3.org/2000/svg" version="1.1" viewBox="0 0 512 512">
  <!-- Generator: Adobe Illustrator 30.3.0, SVG Export Plug-In . SVG Version: 2.1.3 Build 182)  -->
  <defs>
    <style>
      .st0 {
        fill: #d4af37;
      }

      .st1 {
        stroke: #e5e2da;
        stroke-miterlimit: 10;
        stroke-width: .25px;
      }

      .st1, .st2 {
        fill: #050509;
      }

      .st3 {
        fill: #e5e2da;
        font-family: MyriadPro-Regular, 'Myriad Pro';
        font-size: 12px;
      }

      .st4 {
        fill: #f5d97a;
      }

      .st5 {
        fill: #111827;
      }
    </style>
  </defs>
  <rect class="st2" width="512" height="512"/>
  <g>
    <path class="st4" d="M262.79,89c-42.43,0-76.81,34.38-76.81,76.81,0,28.94,16.01,54.14,39.66,67.23-14.4,5.23-37.62,20.71-53.25,66.61.71-1.46,23.55-47.98,84.33-57.04l-.41-.27c2.13.18,4.31.27,6.49.27,42.42,0,76.81-34.38,76.81-76.81s-34.4-76.81-76.81-76.81h-.01ZM262.79,223.8c-32.03,0-57.99-25.97-57.99-57.99s25.95-57.99,57.99-57.99,57.99,25.97,57.99,57.99-25.97,57.99-57.99,57.99Z"/>
    <ellipse class="st4" cx="238.64" cy="166.83" rx="10.54" ry="25.53"/>
    <ellipse class="st4" cx="286.58" cy="166.83" rx="10.54" ry="25.53"/>
    <path class="st4" d="M339.62,216.18s-20.57,40.07-66.52,45.75c0,0-30.47,2.58-53.71,18.59,0,0-38.21,21.69-44.41,62.48,0,0,21.17-41.31,91.92-60.41,0,0,34.59-6.72,49.06-19.62,0,0,22.54-16.62,23.66-46.79Z"/>
  </g>
  <rect class="st1" x="100.5" y="363" width="100" height="100" rx="50" ry="50"/>
  <rect class="st5" x="169.5" y="363" width="100" height="100" rx="50" ry="50"/>
  <rect class="st0" x="239.62" y="363" width="100" height="100" rx="50" ry="50"/>
  <rect class="st4" x="311.5" y="363" width="100" height="100" rx="50" ry="50"/>
  <text class="st3" transform="translate(338.69 483.38)"><tspan x="0" y="0">#F5D97A</tspan></text>
  <text class="st3" transform="translate(266.81 483.38)"><tspan x="0" y="0">#D4AF37</tspan></text>
  <text class="st3" transform="translate(198.05 483.38)"><tspan x="0" y="0">#111827</tspan></text>
  <text class="st3" transform="translate(129.05 483.38)"><tspan x="0" y="0">#050509</tspan></text>
  <text class="st3" transform="translate(29 59.57)"><tspan x="0" y="0">Foreground:</tspan></text>
  <text class="st3" transform="translate(29.91 76.77)"><tspan x="0" y="0">Background:</tspan></text>
  <text class="st3" transform="translate(108.98 59.57)"><tspan x="0" y="0">#E5E2DA</tspan></text>
  <text class="st3" transform="translate(109.89 76.77)"><tspan x="0" y="0">#050509</tspan></text>
  <text class="st3" transform="translate(342.04 498.38)"><tspan x="0" y="0">primary</tspan></text>
</svg>