<?xml version="1.0" encoding="UTF-8"?>
<svg id="Layer_1" xmlns="http://www.w3.org/2000/svg" version="1.1" viewBox="0 0 73 110">
  <!-- Generator: Adobe Illustrator 30.3.0, SVG Export Plug-In . SVG Version: 2.1.3 Build 182)  -->
  <defs>
    <style>
      .st0 {
        fill: #f5d97a;
      }
    </style>
  </defs>
  <path class="st0" d="M39.38,1C21.34,1,6.73,15.62,6.73,33.66c0,12.31,6.81,23.02,16.86,28.59-6.12,2.22-16,8.81-22.64,28.32.3-.62,10.01-20.4,35.86-24.25l-.17-.11c.91.08,1.83.11,2.76.11,18.04,0,32.66-14.62,32.66-32.66S57.42,1,39.39,1h0ZM39.38,58.32c-13.62,0-24.66-11.04-24.66-24.66s11.03-24.66,24.66-24.66,24.66,11.04,24.66,24.66-11.04,24.66-24.66,24.66Z"/>
  <ellipse class="st0" cx="29.12" cy="34.09" rx="4.48" ry="10.86"/>
  <ellipse class="st0" cx="49.5" cy="34.09" rx="4.48" ry="10.86"/>
  <path class="st0" d="M72.05,55.08s-8.75,17.04-28.28,19.45c0,0-12.96,1.1-22.84,7.9,0,0-16.25,9.22-18.88,26.57,0,0,9-17.56,39.08-25.69,0,0,14.71-2.86,20.86-8.34,0,0,9.58-7.07,10.06-19.89h0Z"/>
</svg>