<?xml version="1.0" encoding="UTF-8"?>
<svg id="Layer_1" xmlns="http://www.w3.org/2000/svg" version="1.1" viewBox="0 0 256 256">
  <!-- Generator: Adobe Illustrator 30.3.0, SVG Export Plug-In . SVG Version: 2.1.3 Build 182)  -->
  <defs>
    <style>
      .st0 {
        fill: #f5d97a;
      }
    </style>
  </defs>
  <path class="st0" d="M134.79,1c-42.43,0-76.81,34.38-76.81,76.81,0,28.94,16.01,54.14,39.66,67.23-14.4,5.23-37.62,20.71-53.25,66.61.71-1.46,23.55-47.98,84.33-57.04l-.41-.27c2.13.18,4.31.27,6.49.27,42.42,0,76.81-34.38,76.81-76.81S177.21,1,134.81,1h-.01ZM134.79,135.8c-32.03,0-57.99-25.97-57.99-57.99s25.95-57.99,57.99-57.99,57.99,25.97,57.99,57.99-25.97,57.99-57.99,57.99Z"/>
  <ellipse class="st0" cx="110.64" cy="78.83" rx="10.54" ry="25.53"/>
  <ellipse class="st0" cx="158.58" cy="78.83" rx="10.54" ry="25.53"/>
  <path class="st0" d="M211.62,128.18s-20.57,40.07-66.52,45.75c0,0-30.47,2.58-53.71,18.59,0,0-38.21,21.69-44.41,62.48,0,0,21.17-41.31,91.92-60.41,0,0,34.59-6.72,49.06-19.62,0,0,22.54-16.62,23.66-46.79Z"/>
</svg>