<?xml version="1.0" encoding="UTF-8"?>
<svg id="Layer_1" xmlns="http://www.w3.org/2000/svg" version="1.1" viewBox="0 0 48 48">
  <!-- Generator: Adobe Illustrator 30.3.0, SVG Export Plug-In . SVG Version: 2.1.3 Build 182)  -->
  <defs>
    <style>
      .st0 {
        fill: #fbe731;
      }
    </style>
  </defs>
  <polygon class="st0" points="37.8 4.54 20.82 7.84 17.14 1 37.8 4.54"/>
  <polygon class="st0" points="29.11 7.98 42.08 7.64 17.28 47 32.1 12.96 24.02 12.53 29.11 7.98"/>
  <polygon class="st0" points="44.2 15.19 42.08 28.53 20.34 47 44.2 15.19"/>
  <polygon class="st0" points="6.76 17.82 10.33 17.82 10.33 18.12 7.71 21.08 6.76 20.18 6.76 17.82"/>
  <polygon class="st0" points="17.45 17.28 24.96 17.28 21.59 20.11 19.4 19.64 15.56 21.93 17.45 17.28"/>
  <polygon class="st0" points="7.94 40.36 13.7 40.36 11.51 43.97 7.94 40.36"/>
  <polygon class="st0" points="3.8 25.16 10.33 25.16 7.94 28.13 7.94 31.09 16 36.28 18.83 33.49 17.28 38.37 16.81 38.37 7.81 34.33 5.25 36.35 4.61 33.76 6.19 31.26 6.19 28.57 3.8 27.32 3.8 25.16"/>
</svg>