<?xml version="1.0" encoding="UTF-8"?>
<svg id="Layer_1" xmlns="http://www.w3.org/2000/svg" version="1.1" viewBox="0 0 180 180">
  <!-- Generator: Adobe Illustrator 30.3.0, SVG Export Plug-In . SVG Version: 2.1.3 Build 182)  -->
  <defs>
    <style>
      .st0 {
        fill: #f5d97a;
      }
    </style>
  </defs>
  <path class="st0" d="M93.65,21.65c-22.84,0-41.34,18.5-41.34,41.34,0,15.57,8.62,29.14,21.34,36.18-7.75,2.81-20.25,11.15-28.66,35.85.38-.79,12.67-25.82,45.38-30.7l-.22-.15c1.15.1,2.32.15,3.49.15,22.83,0,41.34-18.5,41.34-41.34s-18.51-41.33-41.33-41.33h-.01ZM93.65,94.2c-17.24,0-31.21-13.98-31.21-31.21s13.97-31.21,31.21-31.21,31.21,13.98,31.21,31.21-13.98,31.21-31.21,31.21Z"/>
  <ellipse class="st0" cx="80.65" cy="63.54" rx="5.67" ry="13.74"/>
  <ellipse class="st0" cx="106.45" cy="63.54" rx="5.67" ry="13.74"/>
  <path class="st0" d="M135,90.1s-11.07,21.56-35.8,24.62c0,0-16.4,1.39-28.91,10,0,0-20.56,11.67-23.9,33.63,0,0,11.39-22.23,49.47-32.51,0,0,18.62-3.62,26.4-10.56,0,0,12.13-8.94,12.73-25.18h0Z"/>
</svg>